# xmcd CD database file generated by OrangeCD 6.3
#
# Track frame offsets:
#	150
#	19334
#	37487
#	47326
#	60021
#	75859
#	94769
#	111725
#	123164
#	154148
#	169139
#	192474
#	204191
#	221884
#
# Disc length: 3055 seconds
#
# Revision: 0
# Processed by: cddbd v1.5.2PL0 Copyright (c) Steve Scherf et al.
# Submitted via: OrangeCD 6.3
#
DISCID=bc0bed0e
DTITLE=Dolly Parton - Little Sparrow
DYEAR=2001
DGENRE=Country
TTITLE0=Little sparrow
TTITLE1=Shine
TTITLE2=I don't believe you've met my baby
TTITLE3=My blue tears
TTITLE4=Seven bridges road
TTITLE5=Bluer pastures
TTITLE6=A tender lie
TTITLE7=I get a kick out of you
TTITLE8=Mountain Angel
TTITLE9=Marry me
TTITLE10=Down from Dover
TTITLE11=The beautiful lie
TTITLE12=In the sweet by and by
TTITLE13=Little sparrow (reprise)
EXTD=
EXTT0=
EXTT1=
EXTT2=
EXTT3=
EXTT4=
EXTT5=
EXTT6=
EXTT7=
EXTT8=
EXTT9=
EXTT10=
EXTT11=
EXTT12=
EXTT13=
PLAYORDER=
